<svg width="108" height="105" viewBox="0 0 108 105" fill="none" xmlns="http://www.w3.org/2000/svg">
<path d="M40.3502 33.1029C39.9578 32.7233 39.4136 32.5046 38.8588 32.5046C38.3041 32.5046 37.7598 32.7231 37.3675 33.1029C36.9752 33.4827 36.7495 34.0096 36.7495 34.5466C36.7495 35.0837 36.9752 35.6105 37.3675 35.9904C37.7598 36.37 38.3041 36.5887 38.8588 36.5887C39.4136 36.5887 39.9578 36.3702 40.3502 35.9904C40.7425 35.6105 40.9682 35.0855 40.9682 34.5466C40.9682 34.0096 40.7425 33.4827 40.3502 33.1029Z" fill="#7D4CFF"/>
<path d="M86.1877 60.3068L71.1809 45.7794C74.4254 41.27 73.9752 35.0077 69.8238 30.9888C67.5661 28.8032 64.5642 27.5995 61.3715 27.5995C58.8938 27.5995 56.5327 28.3272 54.5436 29.6733L39.5385 15.1474C39.0428 14.6675 38.3338 14.457 37.6455 14.5866C36.9575 14.7157 36.3805 15.1672 36.1061 15.7914L15.628 62.3517L4.51724 73.1079C1.60419 75.9281 0 79.6777 0 83.6657C0 87.654 1.60419 91.4036 4.51746 94.2234C7.43051 97.0437 11.3038 98.5966 15.4234 98.5966C19.5432 98.5966 23.4163 97.0437 26.3293 94.2234L28.1341 92.4763L39.9897 103.953C40.4017 104.352 40.9414 104.551 41.4812 104.551C42.021 104.551 42.561 104.352 42.9728 103.953L51.0751 96.1096C51.8988 95.3122 51.8988 94.0192 51.0751 93.2216L39.9405 82.4426L85.5237 63.6296C86.1681 63.3635 86.6343 62.805 86.7674 62.1391C86.9003 61.473 86.6832 60.7865 86.1877 60.3068ZM61.3717 31.6839C63.4376 31.6839 65.3799 32.4627 66.8409 33.8771C69.3394 36.2956 69.7657 39.9705 68.124 42.8201L57.6005 32.6326C58.7402 32.0145 60.0293 31.6839 61.3717 31.6839ZM23.346 91.3354C21.2297 93.3842 18.416 94.5126 15.4232 94.5126C12.4304 94.5126 9.61668 93.3844 7.50033 91.3354C5.3842 89.2866 4.21877 86.563 4.21877 83.6657C4.21877 80.7685 5.3842 78.0447 7.50055 75.9959L17.4087 66.4039L17.7108 66.6963L33.2536 81.7446L23.346 91.3354ZM46.6005 94.6655L41.481 99.6211L31.1172 89.5882L36.2365 84.6326L46.6005 94.6655ZM72.736 64.4672C72.698 64.4237 72.6592 64.3806 72.617 64.3398L45.8977 38.4737C45.0739 37.6764 43.7383 37.6764 42.9144 38.4737C42.0906 39.2711 42.0906 40.5641 42.9144 41.3617L68.5617 66.1901L36.7263 79.3293L19.9073 63.0472L38.7641 20.1738L80.9967 61.0577L72.736 64.4672Z" fill="#7D4CFF"/>
<path d="M87.5548 13.9383C86.7308 13.1413 85.3954 13.1411 84.5717 13.9383L78.9107 19.4185C78.087 20.2159 78.0868 21.5089 78.9107 22.3065C79.3227 22.7053 79.8623 22.9046 80.4023 22.9046C80.9421 22.9046 81.4821 22.7051 81.8938 22.3065L87.5548 16.8263C88.3785 16.0287 88.3787 14.7357 87.5548 13.9383Z" fill="#7D4CFF"/>
<path d="M76.7157 24.4304C76.3234 24.0508 75.7813 23.8321 75.2244 23.8321C74.6696 23.8321 74.1254 24.0506 73.733 24.4304C73.3407 24.8102 73.115 25.3371 73.115 25.8741C73.115 26.4112 73.3407 26.938 73.733 27.3179C74.1275 27.6977 74.6696 27.9162 75.2244 27.9162C75.7792 27.9162 76.3234 27.6977 76.7157 27.3179C77.1102 26.938 77.3338 26.4112 77.3338 25.8741C77.3338 25.3371 77.1102 24.8102 76.7157 24.4304Z" fill="#7D4CFF"/>
<path d="M63.5661 5.83575C62.401 5.83575 61.4567 6.75018 61.4567 7.87779V15.3827C61.4567 16.5103 62.401 17.4245 63.5661 17.4245C64.7311 17.4245 65.6754 16.5101 65.6754 15.3825V7.87779C65.6754 6.75018 64.7311 5.83575 63.5661 5.83575Z" fill="#7D4CFF"/>
<path d="M93.7754 34.7982H85.7637C84.5987 34.7982 83.6544 35.7126 83.6544 36.8402C83.6544 37.9678 84.5987 38.8823 85.7637 38.8823H93.7754C94.9404 38.8823 95.8848 37.9678 95.8848 36.8402C95.8848 35.7126 94.9404 34.7982 93.7754 34.7982Z" fill="#7D4CFF"/>
<path d="M90.7488 81.4221C87.2595 81.4221 84.4207 84.1703 84.4207 87.5482C84.4207 90.9261 87.2595 93.6743 90.7488 93.6743C94.2381 93.6743 97.077 90.9261 97.077 87.5482C97.077 84.1703 94.2381 81.4221 90.7488 81.4221ZM90.7488 89.59C89.5857 89.59 88.6394 88.674 88.6394 87.548C88.6394 86.422 89.5857 85.506 90.7488 85.506C91.9119 85.506 92.8582 86.422 92.8582 87.548C92.8582 88.674 91.9119 89.59 90.7488 89.59Z" fill="#7D4CFF"/>
<path d="M107.304 90.5686L105.029 88.5793C105.056 88.2356 105.069 87.8913 105.069 87.548C105.069 87.2048 105.056 86.8605 105.029 86.5168L107.304 84.5275C108.043 83.8816 108.215 82.8238 107.716 81.9897L104.198 76.1011C103.7 75.2679 102.669 74.8844 101.724 75.1803L98.812 76.0911C98.2234 75.7023 97.6069 75.357 96.966 75.0576L96.3246 72.1591C96.1162 71.2176 95.2566 70.5449 94.262 70.5449H87.2357C86.2409 70.5449 85.3813 71.2176 85.1731 72.1591L84.5316 75.0576C83.8908 75.357 83.2742 75.7021 82.6857 76.0911L79.7741 75.1803C78.8277 74.8844 77.7972 75.2683 77.2996 76.1011L73.7814 81.9897C73.2831 82.8238 73.4548 83.8816 74.1933 84.5275L76.4683 86.5168C76.4419 86.8605 76.4286 87.2048 76.4286 87.548C76.4286 87.8913 76.4419 88.2356 76.4683 88.5793L74.1933 90.5686C73.4548 91.2145 73.2831 92.2723 73.7814 93.1064L77.2996 98.9952C77.7972 99.8284 78.8283 100.212 79.7741 99.916L82.6857 99.005C83.2744 99.394 83.891 99.7393 84.5316 100.039L85.1731 102.937C85.3815 103.879 86.2411 104.551 87.2357 104.551H94.2622C95.257 104.551 96.1166 103.879 96.3248 102.937L96.9662 100.039C97.6069 99.7393 98.2234 99.3942 98.8122 99.005L101.724 99.916C102.67 100.212 103.701 99.828 104.198 98.9952L107.716 93.1064C108.215 92.2723 108.043 91.2145 107.304 90.5686ZM101.4 95.5221L99.076 94.7952C98.3972 94.583 97.6541 94.7172 97.0998 95.1513C96.2754 95.7976 95.358 96.3114 94.3736 96.6777C93.7083 96.9254 93.2174 97.4815 93.0681 98.156L92.5568 100.467H88.9409L88.4296 98.156C88.2802 97.4813 87.7892 96.9254 87.1241 96.6777C86.1396 96.3114 85.2222 95.7976 84.3979 95.1513C83.8438 94.7168 83.1002 94.5828 82.4216 94.7952L80.0981 95.5221L78.2877 92.4916L80.1002 90.9066C80.6284 90.4447 80.8803 89.7561 80.7704 89.0753C80.689 88.5717 80.6476 88.0579 80.6476 87.5478C80.6476 87.0377 80.689 86.5238 80.7704 86.0204C80.8803 85.3396 80.6284 84.651 80.1002 84.1891L78.2877 82.6041L80.0981 79.5735L82.4216 80.3005C83.1002 80.5129 83.8438 80.3787 84.3977 79.9444C85.2218 79.2983 86.139 78.7847 87.1241 78.4177C87.7892 78.17 88.28 77.614 88.4294 76.9397L88.9407 74.629H92.5566L93.0679 76.9397C93.2172 77.6142 93.7081 78.17 94.3732 78.4177C95.3583 78.7847 96.2756 79.2983 97.0996 79.9444C97.6537 80.3787 98.3968 80.5124 99.0756 80.3005L101.399 79.5735L103.21 82.6041L101.397 84.1891C100.869 84.651 100.617 85.3396 100.727 86.0204C100.809 86.524 100.85 87.0377 100.85 87.5478C100.85 88.0579 100.809 88.5719 100.727 89.0753C100.617 89.7561 100.869 90.4447 101.397 90.9066L103.21 92.4916L101.4 95.5221Z" fill="#7D4CFF"/>
<path d="M107.834 15.2694L101.719 1.24768C101.389 0.491515 100.624 0 99.7756 0C98.9276 0 98.1621 0.491515 97.8322 1.24768L91.7173 15.2696C91.2642 16.3086 91.7669 17.5065 92.8403 17.9451C93.1082 18.0545 93.3862 18.1064 93.6598 18.1064C94.4823 18.1064 95.264 17.6376 95.604 16.8581L96.3691 15.1038H103.182L103.947 16.8581C104.4 17.8969 105.638 18.3837 106.711 17.9451C107.784 17.5063 108.287 16.3084 107.834 15.2694ZM98.1501 11.0198L99.7756 7.29227L101.401 11.0198H98.1501Z" fill="#7D4CFF"/>
<path d="M22.7307 1.40844e-08H5.11293C2.29374 -0.000204189 0 2.22009 0 4.94947V19.9645C0 22.6937 2.29374 24.9142 5.11293 24.9142H22.7309C25.5501 24.9142 27.8439 22.6937 27.8439 19.9645V4.94947C27.8436 2.2203 25.5499 1.40844e-08 22.7307 1.40844e-08ZM23.6249 19.9643C23.6249 20.4417 23.2239 20.8299 22.7307 20.8299H5.11293C4.61997 20.8299 4.21877 20.4417 4.21877 19.9643V4.94947C4.21877 4.47225 4.61976 4.08406 5.11293 4.08406H22.7309C23.2239 4.08406 23.6251 4.47225 23.6251 4.94947V19.9643H23.6249Z" fill="#7D4CFF"/>
<path d="M17.6431 8.69129L14.4311 6.89614C13.0248 6.11016 11.3455 6.10996 9.93919 6.89614C8.53286 7.68232 7.69312 9.0899 7.69312 10.6621V14.2524C7.69333 15.8245 8.53307 17.2321 9.9394 18.0183C10.6425 18.4114 11.4139 18.6078 12.1853 18.6078C12.9567 18.6078 13.7281 18.4114 14.4311 18.0183L17.6431 16.2231C19.0494 15.4369 19.8891 14.0292 19.8891 12.4572C19.8889 10.8853 19.0494 9.47727 17.6431 8.69129ZM15.5339 12.6861L12.3219 14.4813C12.2846 14.5023 12.1853 14.5576 12.0488 14.4813C11.9121 14.4049 11.9121 14.294 11.9121 14.2522V10.6619C11.9121 10.62 11.9121 10.5091 12.0488 10.4327C12.1009 10.4035 12.1475 10.3937 12.1874 10.3937C12.2521 10.3937 12.299 10.4199 12.3219 10.4327L15.5339 12.2279C15.5712 12.2489 15.6706 12.3043 15.6706 12.457C15.6706 12.6098 15.5712 12.6653 15.5339 12.6861Z" fill="#7D4CFF"/>
<path d="M13.9325 44.5095H12.4102C11.2452 44.5095 10.3008 45.4239 10.3008 46.5515C10.3008 47.6791 11.2452 48.5935 12.4102 48.5935H13.9325C15.0975 48.5935 16.0419 47.6791 16.0419 46.5515C16.0419 45.4239 15.0975 44.5095 13.9325 44.5095Z" fill="#7D4CFF"/>
<path d="M8.02094 38.8492C6.85593 38.8492 5.91156 39.7636 5.91156 40.8912V42.1903C5.91156 43.3179 6.85593 44.2323 8.02094 44.2323C9.18595 44.2323 10.1303 43.3179 10.1303 42.1903V40.8912C10.1303 39.7636 9.18595 38.8492 8.02094 38.8492Z" fill="#7D4CFF"/>
<path d="M3.45158 44.5095H2.10938C0.944371 44.5095 0 45.4239 0 46.5515C0 47.6791 0.944371 48.5935 2.10938 48.5935H3.45158C4.6166 48.5935 5.56097 47.6791 5.56097 46.5515C5.56097 45.4239 4.6166 44.5095 3.45158 44.5095Z" fill="#7D4CFF"/>
<path d="M8.02094 48.804C6.85593 48.804 5.91156 49.7185 5.91156 50.8461V52.337C5.91156 53.4646 6.85593 54.379 8.02094 54.379C9.18595 54.379 10.1303 53.4646 10.1303 52.337V50.8461C10.1303 49.7185 9.18595 48.804 8.02094 48.804Z" fill="#7D4CFF"/>
</svg>
