<?xml version="1.0" encoding="utf-8"?>
<!-- Generator: Adobe Illustrator 21.1.0, SVG Export Plug-In . SVG Version: 6.00 Build 0)  -->
<svg version="1.1" id="Layer_1" xmlns="http://www.w3.org/2000/svg" xmlns:xlink="http://www.w3.org/1999/xlink" x="0px" y="0px"
	 width="191.9px" height="45.2px" viewBox="0 0 191.9 45.2" style="enable-background:new 0 0 191.9 45.2;" xml:space="preserve">
<style type="text/css">
	.st0{fill:#231F20;}
</style>
<g>
	<path class="st0" d="M34.3,7.8c0.4,0,0.8,0.2,1.1,0.4c0.3,0.3,0.5,0.6,0.7,1c0.3,0.8,0.5,1.7,0.6,2.8c0.2,2.3,0.1,5.2,0.1,8.3
		c0,1.8,0.2,2.2,2.1,2.4c3.5,0.2,6.9,0.5,10.3,0.7c1,0,0.9,1.5-0.1,1.4c-3.4-0.2-6.8-0.5-10.3-0.7c-2.2-0.1-2.3,0.6-2.1,2.6
		c0,0.9,0.1,1.8,0.1,2.6c0.2,2.7,0.8,4.8,1.6,5.6c0.7,0.7-0.3,1.7-1,1c-1.3-1.3-1.8-3.7-2-6.5c-0.1-1-0.1-2.1-0.2-3.2
		c0-2-0.2-2.4-2.2-2.4c-2.2,0-4.4,0-6.6,0.1c-2.9,0.1-3.1,0.4-4.1,2.5l-4,8.2c-0.4,0.8-1.5,0.3-1.3-0.5c0.6-2.1,1.5-4.6,2.7-7
		c1-2,1.5-3-1.1-2.4c-2.8,0.4-5.7,1-8.8,1.8c-0.9,0.2-1.3-1.1-0.4-1.3c3.1-0.8,6.1-1.4,9-1.8c3-0.4,3.8-0.7,4.9-2.9
		c0.6-1,1.2-2,1.8-2.9c0.1-0.2,0.3-0.4,0.4-0.6l4.2-8.5C30.2,7.5,31.5,8.1,31,9c-1.1,2.3-0.2,0.6,1.3-0.3C33,8.1,33.6,7.8,34.3,7.8z
		 M34.3,9.2c-0.1,0-0.6,0.2-1.2,0.6c-0.6,0.4-1.2,1.1-2,1.9c-1.3,1.5-2.9,3.6-4.4,5.9l-1.3,2.7c-0.9,1.9-1,2.4,1.8,2.2
		c1.1,0,2.1-0.1,3.1-0.1c0.9,0,1.7,0,2.6,0c2.3,0,2.4-0.4,2.5-2.1c0.1-3.1,0.1-6.1-0.1-8.2c-0.1-1.1-0.3-1.9-0.5-2.4
		c-0.1-0.3-0.2-0.4-0.3-0.5C34.5,9.2,34.4,9.2,34.3,9.2z"/>
	<path class="st0" d="M55.5,9L55.5,9c0.3,0,0.6,0.1,0.8,0.3c0.2,0.2,0.3,0.5,0.4,0.7c0.1,0.5,0,1-0.2,1.6c-0.3,1.2-1,2.7-1.7,4.3
		c-0.9,1.9-2,4-3,5.7c-1.3,2.3-1.7,4.1-1.3,6.2c0.3,0.9,0.7,1.6,1.3,2.1c0.6,0.5,1.4,0.8,2.5,0.8c3.5,0,6.6-1.1,9.1-2.5
		c2.5-1.4,4.2-3.2,4.9-4.3c0.5-0.8,1.7-0.1,1.2,0.7c-0.9,1.5-2.8,3.3-5.4,4.8c-2.6,1.5-6,2.7-9.8,2.7c-1.4,0-2.5-0.4-3.4-1.1
		c-0.9-0.7-1.4-1.7-1.8-2.8c-0.7-2.4-0.3-5.2,0.2-7.8c0.6-2.8,1.6-5.5,2.7-7.6c0.5-1,1.1-1.9,1.6-2.6C54.2,9.5,54.7,9,55.5,9z
		 M55.3,10.6c-0.1,0.1-0.2,0.1-0.6,0.5c-0.4,0.5-1,1.3-1.5,2.3c-2.4,4.8-2.9,9.1,0.3,1.9c0.8-1.6,1.4-3,1.7-4
		C55.3,10.9,55.3,10.7,55.3,10.6z"/>
	<path class="st0" d="M75,9L75,9c0.3,0,0.6,0.1,0.8,0.3c0.2,0.2,0.3,0.5,0.4,0.7c0.1,0.5,0,1-0.2,1.6c-0.3,1.2-1,2.7-1.7,4.3
		c-0.9,1.9-2,4-3,5.7c-1.3,2.3-1.7,4.1-1.3,6.2c0.3,0.9,0.7,1.6,1.3,2.1c0.6,0.5,1.4,0.8,2.5,0.8c3.5,0,6.6-1.1,9.1-2.5
		c2.5-1.4,4.2-3.2,4.9-4.3c0.5-0.8,1.7-0.1,1.2,0.7c-0.9,1.5-2.8,3.3-5.4,4.8c-2.6,1.5-6,2.7-9.8,2.7c-1.4,0-2.5-0.4-3.4-1.1
		c-0.9-0.7-1.4-1.7-1.8-2.8c-0.7-2.4-0.3-5.2,0.2-7.8c0.6-2.8,1.6-5.5,2.7-7.6c0.5-1,1.1-1.9,1.6-2.6C73.6,9.5,74.2,9,75,9z
		 M74.7,10.6c-0.1,0.1-0.2,0.1-0.6,0.5c-0.4,0.5-1,1.3-1.5,2.3c-2.4,4.8-2.9,9.1,0.3,1.9c0.8-1.6,1.4-3,1.7-4
		C74.7,10.9,74.7,10.7,74.7,10.6z"/>
	<path class="st0" d="M90.3,20c0.3,0,0.7,0.1,0.9,0.3c0.2,0.2,0.4,0.5,0.4,0.8c0.1,0.5,0,1.1-0.3,1.6c-0.6,1.3-2.3,1.5-1.5,2.8
		c0.4,0.4,1.2,0.8,2.4,0.8c3.5,0,6-1.3,8.4-2.7c0.8-0.5,1.5,0.7,0.7,1.2c-2.4,1.4-5.2,2.9-9.1,2.9c-1.5,0-2.6-0.4-3.4-1.2
		c-1.3-1.4-1.4-3.4-0.5-5.1C88.8,20.6,89.4,20,90.3,20z M90.2,21.5c-0.2,0-0.4,0.2-0.7,0.5c-0.4,0.7,0,1.2,0.5,0.1
		C90.2,21.8,90.2,21.6,90.2,21.5z"/>
	<path class="st0" d="M104.4,22.6c0.7,0,1.3,0.4,1.8,0.9c0.5,0.5,0.9,1.1,1.4,1.6c0.9,1.1,1.9,2,3.1,2c1.5,0,2.9-0.5,4-1.2
		c1.2-0.7,2.1-1.6,2.4-2.2c0.5-0.8,1.7-0.1,1.2,0.7c-0.5,0.9-1.5,1.9-2.9,2.7c-1.3,0.8-3,1.4-4.8,1.4c-1.9,0-3.2-1.3-4.2-2.5
		c-0.5-0.6-0.9-1.1-1.3-1.5c-0.4-0.4-0.7-0.5-0.8-0.5c-0.1,0-0.4,0.1-0.7,0.4c-0.3,0.3-0.7,0.7-1,1.1c-0.7,0.9-1.3,2-1.7,2.6
		c-0.4,0.7-1.5,0.3-1.3-0.5l0.8-3.7c0.1-0.8,1.1-0.7,1.3-0.2c0.2,0.6,0.3-0.1,1-0.5C103.2,22.9,103.7,22.6,104.4,22.6z"/>
	<path class="st0" d="M161.6,9.8c0.4,0,0.7,0,1,0c1.1,0,2,0.2,2.8,0.4c0.8,0.2,1.5,0.5,2,0.9s0.9,1.1,0.9,1.8c0,1.8-1.1,3.7-2.7,5.7
		c-1.6,2-3.6,4.1-5.7,6.1c-1.3,1.2-2.5,2.4-3.7,3.4c-2.5,2.6-1.9,2.9,1.2,2c7.2-2.4,14.3-5,23.5-6.7c0.9-0.2,1.2,1.2,0.3,1.4
		c-12.2,2.3-20.6,6.1-31,9.2c-0.6,0.2-1.1-0.5-0.8-1c0.6-1,1.9-2.2,3.7-3.8s3.9-3.5,6-5.5c2.1-2,4.1-4.1,5.6-6
		c1.5-1.9,2.4-3.7,2.4-4.8c0-0.3-0.1-0.5-0.4-0.7s-0.8-0.5-1.5-0.6c-1.4-0.3-3.5-0.4-5.9-0.3c-4.9,0.4-11.3,1.8-17.2,4.1
		c-0.9,0.4-1.4-1-0.5-1.3c6-2.3,12.5-3.8,17.6-4.2C160,9.9,160.8,9.8,161.6,9.8z"/>
	<path class="st0" d="M182.2,27C182.3,27,182.3,27,182.2,27c0.2,0,0.5,0.1,0.6,0.3c0.2,0.3,0.1,0.6,0.1,0.9s-0.2,0.7-0.5,0.9
		c-0.1,0.1-0.3,0.1-0.5,0c-0.2-0.1-0.2-0.2-0.3-0.2c-0.1-0.2-0.1-0.3-0.2-0.5c0-0.3,0-0.6,0-0.6v0c0-0.1,0-0.2,0.1-0.2c0,0,0,0,0,0
		c0-0.1,0.1-0.2,0.1-0.3c0,0,0.1-0.1,0.3-0.2C182,27,182.1,27,182.2,27z"/>
</g>
</svg>
