<svg width="175" height="30" viewBox="0 0 175 30" fill="none" xmlns="http://www.w3.org/2000/svg">
<path d="M25.4073 0.799988C25.8073 0.799988 26.2073 0.999987 26.5073 1.19999C26.8073 1.49999 27.0073 1.79999 27.2073 2.19999C27.5073 2.99999 27.7073 3.89999 27.8073 4.99999C28.0073 7.29999 27.9073 10.2 27.9073 13.3C27.9073 15.1 28.1073 15.5 30.0073 15.7C33.5073 15.9 36.9073 16.2 40.3073 16.4C41.3073 16.4 41.2073 17.9 40.2073 17.8C36.8073 17.6 33.4073 17.3 29.9073 17.1C27.7073 17 27.6073 17.7 27.8073 19.7C27.8073 20.6 27.9073 21.5 27.9073 22.3C28.1073 25 28.7073 27.1 29.5073 27.9C30.2073 28.6 29.2073 29.6 28.5073 28.9C27.2073 27.6 26.7073 25.2 26.5073 22.4C26.4073 21.4 26.4073 20.3 26.3073 19.2C26.3073 17.2 26.1073 16.8 24.1073 16.8C21.9073 16.8 19.7073 16.8 17.5073 16.9C14.6073 17 14.4073 17.3 13.4073 19.4L9.40731 27.6C9.00731 28.4 7.90731 27.9 8.10731 27.1C8.70731 25 9.60731 22.5 10.8073 20.1C11.8073 18.1 12.3073 17.1 9.70731 17.7C6.90731 18.1 4.00731 18.7 0.90731 19.5C0.00731039 19.7 -0.39269 18.4 0.50731 18.2C3.60731 17.4 6.60731 16.8 9.50731 16.4C12.5073 16 13.3073 15.7 14.4073 13.5C15.0073 12.5 15.6073 11.5 16.2073 10.6C16.3073 10.4 16.5073 10.2 16.6073 9.99999L20.8073 1.49999C21.3073 0.499988 22.6073 1.09999 22.1073 1.99999C21.0073 4.29999 21.9073 2.59999 23.4073 1.69999C24.1073 1.09999 24.7073 0.799988 25.4073 0.799988ZM25.4073 2.19999C25.3073 2.19999 24.8073 2.39999 24.2073 2.79999C23.6073 3.19999 23.0073 3.89999 22.2073 4.69999C20.9073 6.19999 19.3073 8.29999 17.8073 10.6L16.5073 13.3C15.6073 15.2 15.5073 15.7 18.3073 15.5C19.4073 15.5 20.4073 15.4 21.4073 15.4C22.3073 15.4 23.1073 15.4 24.0073 15.4C26.3073 15.4 26.4073 15 26.5073 13.3C26.6073 10.2 26.6073 7.19999 26.4073 5.09999C26.3073 3.99999 26.1073 3.19999 25.9073 2.69999C25.8073 2.39999 25.7073 2.29999 25.6073 2.19999C25.6073 2.19999 25.5073 2.19999 25.4073 2.19999Z" fill="#231F20"/>
<path d="M46.6073 2C46.9073 2 47.2073 2.1 47.4073 2.3C47.6073 2.5 47.7073 2.8 47.8073 3C47.9073 3.5 47.8073 4 47.6073 4.6C47.3073 5.8 46.6073 7.3 45.9073 8.9C45.0073 10.8 43.9073 12.9 42.9073 14.6C41.6073 16.9 41.2073 18.7 41.6073 20.8C41.9073 21.7 42.3073 22.4 42.9073 22.9C43.5073 23.4 44.3073 23.7 45.4073 23.7C48.9073 23.7 52.0073 22.6 54.5073 21.2C57.0073 19.8 58.7073 18 59.4073 16.9C59.9073 16.1 61.1073 16.8 60.6073 17.6C59.7073 19.1 57.8073 20.9 55.2073 22.4C52.6073 23.9 49.2073 25.1 45.4073 25.1C44.0073 25.1 42.9073 24.7 42.0073 24C41.1073 23.3 40.6073 22.3 40.2073 21.2C39.5073 18.8 39.9073 16 40.4073 13.4C41.0073 10.6 42.0073 7.9 43.1073 5.8C43.6073 4.8 44.2073 3.9 44.7073 3.2C45.3073 2.5 45.8073 2 46.6073 2ZM46.4073 3.6C46.3073 3.7 46.2073 3.7 45.8073 4.1C45.4073 4.6 44.8073 5.4 44.3073 6.4C41.9073 11.2 41.4073 15.5 44.6073 8.3C45.4073 6.7 46.0073 5.3 46.3073 4.3C46.4073 3.9 46.4073 3.7 46.4073 3.6Z" fill="#231F20"/>
<path d="M66.1073 2C66.4073 2 66.7073 2.1 66.9073 2.3C67.1073 2.5 67.2073 2.8 67.3073 3C67.4073 3.5 67.3073 4 67.1073 4.6C66.8073 5.8 66.1073 7.3 65.4073 8.9C64.5073 10.8 63.4073 12.9 62.4073 14.6C61.1073 16.9 60.7073 18.7 61.1073 20.8C61.4073 21.7 61.8073 22.4 62.4073 22.9C63.0073 23.4 63.8073 23.7 64.9073 23.7C68.4073 23.7 71.5073 22.6 74.0073 21.2C76.5073 19.8 78.2073 18 78.9073 16.9C79.4073 16.1 80.6073 16.8 80.1073 17.6C79.2073 19.1 77.3073 20.9 74.7073 22.4C72.1073 23.9 68.7073 25.1 64.9073 25.1C63.5073 25.1 62.4073 24.7 61.5073 24C60.6073 23.3 60.1073 22.3 59.7073 21.2C59.0073 18.8 59.4073 16 59.9073 13.4C60.5073 10.6 61.5073 7.9 62.6073 5.8C63.1073 4.8 63.7073 3.9 64.2073 3.2C64.7073 2.5 65.3073 2 66.1073 2ZM65.8073 3.6C65.7073 3.7 65.6073 3.7 65.2073 4.1C64.8073 4.6 64.2073 5.4 63.7073 6.4C61.3073 11.2 60.8073 15.5 64.0073 8.3C64.8073 6.7 65.4073 5.3 65.7073 4.3C65.8073 3.9 65.8073 3.7 65.8073 3.6Z" fill="#231F20"/>
<path d="M81.4073 13C81.7073 13 82.1073 13.1 82.3073 13.3C82.5073 13.5 82.7073 13.8 82.7073 14.1C82.8073 14.6 82.7073 15.2 82.4073 15.7C81.8073 17 80.1073 17.2 80.9073 18.5C81.3073 18.9 82.1073 19.3 83.3073 19.3C86.8073 19.3 89.3073 18 91.7073 16.6C92.5073 16.1 93.2073 17.3 92.4073 17.8C90.0073 19.2 87.2073 20.7 83.3073 20.7C81.8073 20.7 80.7073 20.3 79.9073 19.5C78.6073 18.1 78.5073 16.1 79.4073 14.4C79.9073 13.6 80.5073 13 81.4073 13ZM81.3073 14.5C81.1073 14.5 80.9073 14.7 80.6073 15C80.2073 15.7 80.6073 16.2 81.1073 15.1C81.3073 14.8 81.3073 14.6 81.3073 14.5Z" fill="#231F20"/>
<path d="M95.5073 15.6C96.2073 15.6 96.8073 16 97.3073 16.5C97.8073 17 98.2073 17.6 98.7073 18.1C99.6073 19.2 100.607 20.1 101.807 20.1C103.307 20.1 104.707 19.6 105.807 18.9C107.007 18.2 107.907 17.3 108.207 16.7C108.707 15.9 109.907 16.6 109.407 17.4C108.907 18.3 107.907 19.3 106.507 20.1C105.207 20.9 103.507 21.5 101.707 21.5C99.8073 21.5 98.5073 20.2 97.5073 19C97.0073 18.4 96.6073 17.9 96.2073 17.5C95.8073 17.1 95.5073 17 95.4073 17C95.3073 17 95.0073 17.1 94.7073 17.4C94.4073 17.7 94.0073 18.1 93.7073 18.5C93.0073 19.4 92.4073 20.5 92.0073 21.1C91.6073 21.8 90.5073 21.4 90.7073 20.6L91.5073 16.9C91.6073 16.1 92.6073 16.2 92.8073 16.7C93.0073 17.3 93.1073 16.6 93.8073 16.2C94.3073 15.9 94.8073 15.6 95.5073 15.6Z" fill="#231F20"/>
<path d="M152.707 2.79999C153.107 2.79999 153.407 2.79999 153.707 2.79999C154.807 2.79999 155.707 2.99999 156.507 3.19999C157.307 3.39999 158.007 3.69999 158.507 4.09999C159.007 4.49999 159.407 5.19999 159.407 5.89999C159.407 7.69999 158.307 9.59999 156.707 11.6C155.107 13.6 153.107 15.7 151.007 17.7C149.707 18.9 148.507 20.1 147.307 21.1C144.807 23.7 145.407 24 148.507 23.1C155.707 20.7 162.807 18.1 172.007 16.4C172.907 16.2 173.207 17.6 172.307 17.8C160.107 20.1 151.707 23.9 141.307 27C140.707 27.2 140.207 26.5 140.507 26C141.107 25 142.407 23.8 144.207 22.2C146.007 20.6 148.107 18.7 150.207 16.7C152.307 14.7 154.307 12.6 155.807 10.7C157.307 8.79999 158.207 6.99999 158.207 5.89999C158.207 5.59999 158.107 5.39999 157.807 5.19999C157.507 4.99999 157.007 4.69999 156.307 4.59999C154.907 4.29999 152.807 4.19999 150.407 4.29999C145.507 4.69999 139.107 6.09999 133.207 8.39999C132.307 8.79999 131.807 7.39999 132.707 7.09999C138.707 4.79999 145.207 3.29999 150.307 2.89999C151.107 2.89999 151.907 2.79999 152.707 2.79999Z" fill="#231F20"/>
<path d="M173.307 20C173.407 20 173.407 20 173.307 20C173.507 20 173.807 20.1 173.907 20.3C174.107 20.6 174.007 20.9 174.007 21.2C174.007 21.5 173.807 21.9 173.507 22.1C173.407 22.2 173.207 22.2 173.007 22.1C172.807 22 172.807 21.9 172.707 21.9C172.607 21.7 172.607 21.6 172.507 21.4C172.507 21.1 172.507 20.8 172.507 20.8C172.507 20.7 172.507 20.6 172.607 20.6C172.607 20.5 172.707 20.4 172.707 20.3C172.707 20.3 172.807 20.2 173.007 20.1C173.107 20 173.207 20 173.307 20Z" fill="#231F20"/>
</svg>
