<svg width="102" height="107" viewBox="0 0 102 107" fill="none" xmlns="http://www.w3.org/2000/svg">
<path d="M99.9184 29.9753H93.049V17.0692C93.049 15.9197 92.1168 14.9875 90.9673 14.9875H79.3102C78.1607 14.9875 77.2286 15.9197 77.2286 17.0692V29.9753H70.5676V26.6449C70.5676 25.4954 69.6354 24.5633 68.4859 24.5633C67.3364 24.5633 66.4043 25.4954 66.4043 26.6449V29.9753H50.1332V24.5633C50.1332 23.4138 49.2011 22.4816 48.0516 22.4816H32.2312C31.0817 22.4816 30.1495 23.4138 30.1495 24.5633V29.9753H26.101V16.2367C26.101 15.0872 25.1688 14.1551 24.0193 14.1551H8.19893C7.04945 14.1551 6.11729 15.0872 6.11729 16.2367V29.9753H2.08163C0.932155 29.9753 0 30.9074 0 32.0569V43.2977C0 43.8725 0.232935 44.3929 0.60971 44.7697L38.9265 83.0867V104.498C38.9265 105.174 39.2548 105.808 39.8069 106.198C40.163 106.45 40.5833 106.58 41.0082 106.58C41.2419 106.58 41.4772 106.54 41.7034 106.46L51.6953 102.919C52.7788 102.535 53.346 101.345 52.9619 100.261C52.5775 99.1777 51.3876 98.6103 50.3043 98.9945L43.0898 101.552V82.2243C43.0898 81.6722 42.8704 81.1429 42.4801 80.7523L7.10732 45.3794H94.8929L83.6668 56.6054C82.854 57.4183 82.854 58.7364 83.6668 59.5495C84.4799 60.3621 85.7976 60.3621 86.6109 59.5495L101.39 44.7699C101.767 44.3929 102 43.8725 102 43.2977V32.0569C102 30.9074 101.068 29.9753 99.9184 29.9753ZM81.3918 19.1508H88.8857V29.9753H81.3918V19.1508ZM34.3128 26.6449H45.9699V29.9753H34.3128V26.6449ZM10.2806 18.3184H21.9377V29.9753H10.2806V18.3184ZM97.8367 41.2161H4.16327V34.1386H97.8367V41.2161Z" fill="#DA567D"/>
<path d="M79.5328 63.6834C79.1458 63.2962 78.6087 63.0735 78.0612 63.0735C77.5138 63.0735 76.9767 63.296 76.5895 63.6834C76.2023 64.0708 75.9796 64.6076 75.9796 65.1551C75.9796 65.7026 76.2021 66.2396 76.5895 66.6266C76.9767 67.0138 77.5138 67.2368 78.0612 67.2368C78.6087 67.2368 79.1458 67.014 79.5328 66.6266C79.9201 66.2396 80.1429 65.7026 80.1429 65.1551C80.1429 64.6076 79.9201 64.0706 79.5328 63.6834Z" fill="#DA567D"/>
<path d="M69.7347 86.9327C68.3573 86.9327 67.2368 86.002 67.2368 84.8579C67.2368 83.7141 68.3573 82.7836 69.7347 82.7836C71.1121 82.7836 72.2327 83.7143 72.2327 84.8582C72.2327 86.0076 73.1648 86.9398 74.3143 86.9398C75.4638 86.9398 76.3959 86.0076 76.3959 84.8582C76.3959 82.0985 74.4717 79.7534 71.8143 78.9334C71.7928 77.8025 70.8709 76.8915 69.7347 76.8915C68.5986 76.8915 67.6764 77.8025 67.6552 78.9334C64.9977 79.7534 63.0735 82.0987 63.0735 84.8582C63.0735 88.2976 66.0617 91.0962 69.7347 91.0962C71.1121 91.0962 72.2327 92.0269 72.2327 93.1707C72.2327 94.3146 71.1121 95.2453 69.7347 95.2453C68.3573 95.2453 67.2368 94.3146 67.2368 93.1707C67.2368 92.0213 66.3046 91.0891 65.1551 91.0891C64.0056 91.0891 63.0735 92.0213 63.0735 93.1707C63.0735 95.9312 64.999 98.277 67.6577 99.0963C67.7049 100.204 68.6154 101.088 69.7347 101.088C70.854 101.088 71.7645 100.204 71.8118 99.0963C74.4704 98.2768 76.3959 95.931 76.3959 93.1705C76.3959 89.7311 73.4078 86.9327 69.7347 86.9327Z" fill="#DA567D"/>
<path d="M69.7347 71.6082C60.0932 71.6082 52.249 79.4524 52.249 89.0939C52.249 98.7354 60.0932 106.58 69.7347 106.58C79.3762 106.58 87.2204 98.7354 87.2204 89.0939C87.2204 79.4524 79.3762 71.6082 69.7347 71.6082ZM69.7347 102.416C62.3886 102.416 56.4122 96.4399 56.4122 89.0939C56.4122 81.7478 62.3886 75.7714 69.7347 75.7714C77.0808 75.7714 83.0571 81.7478 83.0571 89.0939C83.0571 96.4399 77.0808 102.416 69.7347 102.416Z" fill="#DA567D"/>
<path d="M46.5909 51.818C46.2039 51.4309 45.6687 51.2081 45.1194 51.2081C44.5719 51.2081 44.0348 51.4307 43.6476 51.818C43.2605 52.2054 43.0377 52.7423 43.0377 53.2898C43.0377 53.8372 43.2602 54.3743 43.6476 54.7613C44.0348 55.1485 44.5719 55.3714 45.1194 55.3714C45.6689 55.3714 46.2039 55.1487 46.5909 54.7613C46.9801 54.3743 47.201 53.8372 47.201 53.2898C47.201 52.7423 46.9801 52.2052 46.5909 51.818Z" fill="#DA567D"/>
<path d="M35.1398 51.818C34.7528 51.4309 34.2158 51.2081 33.6683 51.2081C33.1206 51.2081 32.5838 51.4307 32.1966 51.818C31.8094 52.2052 31.5867 52.7423 31.5867 53.2898C31.5867 53.8372 31.8092 54.3743 32.1966 54.7613C32.5838 55.1485 33.1206 55.3714 33.6683 55.3714C34.2158 55.3714 34.7528 55.1487 35.1398 54.7613C35.527 54.3743 35.7499 53.8372 35.7499 53.2898C35.7499 52.7423 35.5272 52.2052 35.1398 51.818Z" fill="#DA567D"/>
<path d="M58.0443 51.818C57.655 51.4309 57.12 51.2081 56.5705 51.2081C56.023 51.2081 55.4859 51.4307 55.0987 51.818C54.7118 52.2052 54.4909 52.7423 54.4909 53.2898C54.4909 53.8372 54.7118 54.3743 55.0987 54.7613C55.488 55.1487 56.023 55.3714 56.5705 55.3714C57.12 55.3714 57.655 55.1487 58.0443 54.7613C58.4314 54.3743 58.6542 53.8372 58.6542 53.2898C58.6542 52.7423 58.4316 52.2052 58.0443 51.818Z" fill="#DA567D"/>
<path d="M46.5909 69.0956C46.2039 68.7082 45.6668 68.4857 45.1194 68.4857C44.5719 68.4857 44.0348 68.7082 43.6476 69.0956C43.2605 69.483 43.0377 70.0199 43.0377 70.5674C43.0377 71.1148 43.2602 71.6519 43.6476 72.0389C44.0348 72.426 44.5719 72.649 45.1194 72.649C45.6689 72.649 46.2039 72.4262 46.5909 72.0389C46.9801 71.6519 47.201 71.1148 47.201 70.5674C47.201 70.0199 46.9801 69.4828 46.5909 69.0956Z" fill="#DA567D"/>
<path d="M58.0422 69.0956C57.655 68.7085 57.1198 68.4857 56.5724 68.4857C56.0249 68.4857 55.4878 68.7082 55.0986 69.0956C54.7116 69.4828 54.4907 70.0199 54.4907 70.5674C54.4907 71.1148 54.7116 71.6519 55.0986 72.0389C55.4878 72.426 56.0228 72.649 56.5724 72.649C57.1198 72.649 57.6569 72.4262 58.0422 72.0389C58.4315 71.6519 58.654 71.1148 58.654 70.5674C58.654 70.0199 58.4315 69.4828 58.0422 69.0956Z" fill="#DA567D"/>
<path d="M52.4715 60.4568C52.0846 60.0697 51.5475 59.8469 51 59.8469C50.4526 59.8469 49.9155 60.0694 49.5283 60.4568C49.1411 60.8442 48.9184 61.3811 48.9184 61.9286C48.9184 62.476 49.1409 63.0131 49.5283 63.4001C49.9155 63.7872 50.4526 64.0102 51 64.0102C51.5475 64.0102 52.0846 63.7875 52.4715 63.4001C52.8587 63.0131 53.0817 62.476 53.0817 61.9286C53.0817 61.3811 52.8589 60.844 52.4715 60.4568Z" fill="#DA567D"/>
<path d="M42.2195 60.4568C41.8325 60.0697 41.2973 59.8469 40.748 59.8469C40.2005 59.8469 39.6655 60.0694 39.2762 60.4568C38.8891 60.844 38.6663 61.3811 38.6663 61.9286C38.6663 62.476 38.8888 63.0131 39.2762 63.4001C39.6655 63.7872 40.2005 64.0102 40.748 64.0102C41.2975 64.0102 41.8325 63.7875 42.2195 63.4001C42.6087 63.0131 42.8296 62.476 42.8296 61.9286C42.8296 61.3811 42.6087 60.844 42.2195 60.4568Z" fill="#DA567D"/>
<path d="M62.7217 60.4568C62.3347 60.0697 61.7995 59.8469 61.252 59.8469C60.7023 59.8469 60.1675 60.0694 59.7803 60.4568C59.3911 60.844 59.1704 61.3811 59.1704 61.9286C59.1704 62.476 59.3911 63.0131 59.7803 63.4001C60.1675 63.7872 60.7025 64.0102 61.252 64.0102C61.7995 64.0102 62.3345 63.7875 62.7217 63.4001C63.1109 63.0131 63.3318 62.476 63.3318 61.9286C63.3318 61.3811 63.1109 60.844 62.7217 60.4568Z" fill="#DA567D"/>
<path d="M69.8033 51.818C69.4162 51.4309 68.8791 51.2081 68.3316 51.2081C67.7842 51.2081 67.2471 51.4307 66.8599 51.818C66.4729 52.2052 66.25 52.7423 66.25 53.2898C66.25 53.8372 66.4727 54.3743 66.8599 54.7613C67.2471 55.1485 67.7842 55.3714 68.3316 55.3714C68.8791 55.3714 69.4162 55.1487 69.8033 54.7613C70.1903 54.3743 70.4133 53.8372 70.4133 53.2898C70.4133 52.7423 70.1905 52.2052 69.8033 51.818Z" fill="#DA567D"/>
<path d="M68.4859 0H52.6655C51.516 0 50.5839 0.932155 50.5839 2.08163V17.902C50.5839 19.0515 51.516 19.9837 52.6655 19.9837H68.4859C69.6354 19.9837 70.5675 19.0515 70.5675 17.902V2.08163C70.5675 0.932155 69.6354 0 68.4859 0ZM66.4043 15.8204H54.7471V4.16327H66.4043V15.8204Z" fill="#DA567D"/>
<path d="M32.2312 0C31.0817 0 30.1495 0.932155 30.1495 2.08163V8.67354C30.1495 9.82302 31.0815 10.7552 32.2312 10.7552C33.3806 10.7552 34.3128 9.82302 34.3128 8.67354V2.08163C34.3128 0.932155 33.3806 0 32.2312 0Z" fill="#DA567D"/>
<path d="M33.7037 14.7296C33.3165 14.3422 32.7794 14.1197 32.232 14.1197C31.6824 14.1197 31.1474 14.3422 30.7602 14.7296C30.371 15.1168 30.1503 15.6539 30.1503 16.2013C30.1503 16.7488 30.371 17.2859 30.7602 17.6728C31.1474 18.0621 31.6826 18.283 32.232 18.283C32.7794 18.283 33.3144 18.0621 33.7037 17.6728C34.0907 17.2859 34.3136 16.7488 34.3136 16.2013C34.3136 15.6539 34.0909 15.1168 33.7037 14.7296Z" fill="#DA567D"/>
<path d="M16.1091 0C14.9596 0 14.0275 0.932155 14.0275 2.08163V7.28571C14.0275 8.43519 14.9594 9.36735 16.1091 9.36735C17.2586 9.36735 18.1907 8.43519 18.1907 7.28571V2.08163C18.1907 0.932155 17.2586 0 16.1091 0Z" fill="#DA567D"/>
<path d="M85.1346 0C83.9851 0 83.053 0.932155 83.053 2.08163V7.28571C83.053 8.43519 83.9851 9.36735 85.1346 9.36735C86.2841 9.36735 87.2162 8.43519 87.2162 7.28571V2.08163C87.2162 0.932155 86.2841 0 85.1346 0Z" fill="#DA567D"/>
<path d="M40.5918 5.2041C39.4423 5.2041 38.5102 6.13626 38.5102 7.28573V13.3225C38.5102 14.4719 39.4423 15.4041 40.5918 15.4041C41.7413 15.4041 42.6735 14.4719 42.6735 13.3225V7.28573C42.6735 6.13626 41.7413 5.2041 40.5918 5.2041Z" fill="#DA567D"/>
</svg>
