<svg width="272" height="34" viewBox="0 0 272 34" fill="none" xmlns="http://www.w3.org/2000/svg">
<path d="M9.3 4.65C9.3 7.22 7.22 9.3 4.65 9.3C2.08 9.3 0 7.22 0 4.65C0 2.08 2.08 0 4.65 0C7.22 0 9.3 2.08 9.3 4.65Z" fill="#DA567D"/>
<path d="M40.11 4.65C40.11 7.22 38.03 9.3 35.46 9.3C32.89 9.3 30.81 7.22 30.81 4.65C30.8 2.08 32.89 0 35.46 0C38.02 0 40.11 2.08 40.11 4.65Z" fill="#DA567D"/>
<path d="M70.91 4.65C70.91 7.22 68.83 9.3 66.26 9.3C63.69 9.3 61.61 7.22 61.61 4.65C61.61 2.08 63.69 0 66.26 0C68.83 0 70.91 2.08 70.91 4.65Z" fill="#DA567D"/>
<path d="M101.71 4.65C101.71 7.22 99.63 9.3 97.06 9.3C94.49 9.3 92.41 7.22 92.41 4.65C92.41 2.08 94.49 0 97.06 0C99.63 0 101.71 2.08 101.71 4.65Z" fill="#DA567D"/>
<path d="M132.52 4.65C132.52 7.22 130.44 9.3 127.87 9.3C125.3 9.3 123.22 7.22 123.22 4.65C123.22 2.08 125.3 0 127.87 0C130.44 0 132.52 2.08 132.52 4.65Z" fill="#DA567D"/>
<path d="M163.32 4.65C163.32 7.22 161.24 9.3 158.67 9.3C156.1 9.3 154.02 7.22 154.02 4.65C154.02 2.08 156.1 0 158.67 0C161.24 0 163.32 2.08 163.32 4.65Z" fill="#DA567D"/>
<path d="M194.12 4.65C194.12 7.22 192.04 9.3 189.47 9.3C186.9 9.3 184.82 7.22 184.82 4.65C184.82 2.08 186.9 0 189.47 0C192.04 0 194.12 2.08 194.12 4.65Z" fill="#DA567D"/>
<path d="M224.93 4.65C224.93 7.22 222.85 9.3 220.28 9.3C217.71 9.3 215.63 7.22 215.63 4.65C215.63 2.08 217.71 0 220.28 0C222.85 0 224.93 2.08 224.93 4.65Z" fill="#DA567D"/>
<path d="M255.73 4.65C255.73 7.22 253.65 9.3 251.08 9.3C248.51 9.3 246.43 7.22 246.43 4.65C246.43 2.08 248.51 0 251.08 0C253.65 0 255.73 2.08 255.73 4.65Z" fill="#DA567D"/>
<path d="M24.91 29.04C24.91 31.61 22.83 33.69 20.26 33.69C17.69 33.69 15.61 31.61 15.61 29.04C15.61 26.47 17.69 24.39 20.26 24.39C22.83 24.39 24.91 26.47 24.91 29.04Z" fill="#DA567D"/>
<path d="M51.06 33.69C53.6281 33.69 55.71 31.6081 55.71 29.04C55.71 26.4719 53.6281 24.39 51.06 24.39C48.4919 24.39 46.41 26.4719 46.41 29.04C46.41 31.6081 48.4919 33.69 51.06 33.69Z" fill="#DA567D"/>
<path d="M81.86 33.69C84.4281 33.69 86.51 31.6081 86.51 29.04C86.51 26.4719 84.4281 24.39 81.86 24.39C79.2919 24.39 77.21 26.4719 77.21 29.04C77.21 31.6081 79.2919 33.69 81.86 33.69Z" fill="#DA567D"/>
<path d="M117.32 29.04C117.32 31.61 115.24 33.69 112.67 33.69C110.1 33.69 108.02 31.61 108.02 29.04C108.02 26.47 110.1 24.39 112.67 24.39C115.24 24.39 117.32 26.47 117.32 29.04Z" fill="#DA567D"/>
<path d="M148.12 29.04C148.12 31.61 146.04 33.69 143.47 33.69C140.9 33.69 138.82 31.61 138.82 29.04C138.82 26.47 140.9 24.39 143.47 24.39C146.04 24.39 148.12 26.47 148.12 29.04Z" fill="#DA567D"/>
<path d="M178.93 29.04C178.93 31.61 176.85 33.69 174.28 33.69C171.71 33.69 169.63 31.61 169.63 29.04C169.63 26.47 171.71 24.39 174.28 24.39C176.84 24.39 178.93 26.47 178.93 29.04Z" fill="#DA567D"/>
<path d="M205.08 33.69C207.648 33.69 209.73 31.6081 209.73 29.04C209.73 26.4719 207.648 24.39 205.08 24.39C202.512 24.39 200.43 26.4719 200.43 29.04C200.43 31.6081 202.512 33.69 205.08 33.69Z" fill="#DA567D"/>
<path d="M235.88 33.69C238.448 33.69 240.53 31.6081 240.53 29.04C240.53 26.4719 238.448 24.39 235.88 24.39C233.312 24.39 231.23 26.4719 231.23 29.04C231.23 31.6081 233.312 33.69 235.88 33.69Z" fill="#DA567D"/>
<path d="M271.34 29.04C271.34 31.61 269.26 33.69 266.69 33.69C264.12 33.69 262.04 31.61 262.04 29.04C262.04 26.47 264.12 24.39 266.69 24.39C269.25 24.39 271.34 26.47 271.34 29.04Z" fill="#DA567D"/>
</svg>
