<svg width="112" height="101" viewBox="0 0 112 101" fill="none" xmlns="http://www.w3.org/2000/svg">
<path d="M90.2105 7.93891H46.4218C45.2139 7.93891 44.2343 8.92642 44.2343 10.1441C44.2343 11.3619 45.2137 12.3494 46.4218 12.3494H90.2105C91.4184 12.3494 92.398 11.3619 92.398 10.1441C92.398 8.92642 91.4184 7.93891 90.2105 7.93891Z" fill="#DA567D"/>
<path d="M24.2417 8.58505C23.835 8.17487 23.2706 7.93891 22.6953 7.93891C22.1176 7.93891 21.5556 8.17465 21.1488 8.58505C20.7397 8.99522 20.5078 9.56417 20.5078 10.1441C20.5078 10.7241 20.7397 11.2931 21.1488 11.703C21.5556 12.1134 22.1176 12.3494 22.6953 12.3494C23.2706 12.3494 23.835 12.1134 24.2417 11.703C24.6485 11.2931 24.8828 10.7241 24.8828 10.1441C24.8828 9.56417 24.6487 8.99522 24.2417 8.58505Z" fill="#DA567D"/>
<path d="M16.2026 8.58505C15.7959 8.17487 15.2316 7.93891 14.6562 7.93891C14.0809 7.93891 13.5166 8.17465 13.1097 8.58505C12.7028 8.99544 12.4688 9.56417 12.4688 10.1441C12.4688 10.7241 12.7026 11.2931 13.1097 11.703C13.5166 12.1134 14.0809 12.3494 14.6562 12.3494C15.2316 12.3494 15.7959 12.1134 16.2026 11.703C16.6097 11.2931 16.8438 10.7241 16.8438 10.1441C16.8438 9.56417 16.6097 8.99522 16.2026 8.58505Z" fill="#DA567D"/>
<path d="M32.2807 8.58505C31.8741 8.17487 31.3097 7.93891 30.7344 7.93891C30.1567 7.93891 29.5925 8.17465 29.1878 8.58505C28.7787 8.99522 28.5469 9.56417 28.5469 10.1441C28.5469 10.7241 28.7787 11.2931 29.1878 11.703C29.5925 12.1134 30.1567 12.3494 30.7344 12.3494C31.3097 12.3494 31.8741 12.1134 32.2807 11.703C32.6878 11.2931 32.9219 10.7241 32.9219 10.1441C32.9219 9.56417 32.6878 8.99522 32.2807 8.58505Z" fill="#DA567D"/>
<path d="M101.062 0H2.1875C0.979563 0 0 0.987507 0 2.20524V98.7948C0 100.012 0.979563 101 2.1875 101H82.9062C84.1142 101 85.0938 100.012 85.0938 98.7948C85.0938 97.577 84.1142 96.5895 82.9062 96.5895H4.375V20.2882H98.8512C98.8592 20.2882 98.8671 20.2871 98.875 20.2869V66.1572C98.875 67.3749 99.8546 68.3624 101.062 68.3624C102.27 68.3624 103.25 67.3749 103.25 66.1572V2.20524C103.25 0.987507 102.27 0 101.062 0ZM98.875 15.8791C98.8669 15.8791 98.859 15.8777 98.8512 15.8777H4.375V4.41048H98.875V15.8791Z" fill="#DA567D"/>
<path d="M93.1107 97.2356C92.7041 96.8255 92.1419 96.5895 91.5644 96.5895C90.9891 96.5895 90.4247 96.8252 90.0178 97.2356C89.611 97.646 89.3769 98.2148 89.3769 98.7948C89.3769 99.3747 89.6107 99.9437 90.0178 100.354C90.4247 100.764 90.9891 101 91.5644 101C92.1419 101 92.7041 100.764 93.1107 100.354C93.5176 99.9437 93.7519 99.3747 93.7519 98.7948C93.7519 98.2148 93.5178 97.6458 93.1107 97.2356Z" fill="#DA567D"/>
<path d="M109.888 83.4401C109.882 83.4346 109.876 83.4287 109.87 83.4232L96.92 70.6506C96.0634 69.8058 94.6916 69.8131 93.8435 70.6676L91.5677 72.9619L89.1065 70.4808C92.2718 66.6843 94.1817 61.7902 94.1817 56.4542C94.1817 44.416 84.4668 34.6223 72.5255 34.6223C64.9392 34.6223 58.2525 38.5758 54.3834 44.5459H23.625C17.1117 44.5459 11.8125 49.8881 11.8125 56.4542C11.8125 63.0203 17.1117 68.3625 23.625 68.3625H54.3832C58.2523 74.3325 64.9388 78.2861 72.5253 78.2861C77.6009 78.2861 82.2736 76.5159 85.9699 73.5567L88.4737 76.0808L86.5883 77.9815C86.175 78.3981 85.9445 78.9639 85.9475 79.553C85.9506 80.142 86.1877 80.7054 86.6053 81.1174L99.5481 93.8822C100.91 95.2505 102.725 96.0025 104.663 96.0025C104.675 96.0025 104.687 96.0025 104.699 96.0025C106.647 95.993 108.477 95.2243 109.853 93.8379C111.228 92.4514 111.991 90.6065 112 88.6423C112.009 86.6706 111.259 84.8231 109.888 83.4401ZM52.185 63.952H23.625C19.5239 63.952 16.1875 60.5886 16.1875 56.4542C16.1875 52.3198 19.5239 48.9564 23.625 48.9564H52.185C51.3339 51.2957 50.869 53.8211 50.869 56.4542C50.869 59.0872 51.3339 61.6127 52.185 63.952ZM72.5253 73.8756C62.9963 73.8756 55.244 66.0604 55.244 56.4542C55.244 46.8479 62.9963 39.0328 72.5253 39.0328C82.0542 39.0328 89.8065 46.8479 89.8065 56.4542C89.8065 66.0604 82.0542 73.8756 72.5253 73.8756ZM106.759 90.7192C106.204 91.2782 105.466 91.5881 104.678 91.592C104.673 91.592 104.668 91.592 104.663 91.592C103.889 91.592 103.169 91.2948 102.632 90.754C102.627 90.7485 102.621 90.7426 102.615 90.7371L91.2457 79.5236L93.1129 77.6412C93.1134 77.6408 93.1138 77.6406 93.1142 77.6401C93.1147 77.6397 93.1149 77.6393 93.1153 77.6388L95.407 75.3286L106.801 86.5659C107.336 87.1092 107.629 87.8385 107.625 88.6209C107.621 89.415 107.314 90.16 106.759 90.7192Z" fill="#DA567D"/>
<path d="M37.5221 54.8884C37.1131 54.4761 36.5509 54.2423 35.9756 54.2423C35.3979 54.2423 34.8337 54.4783 34.429 54.8884C34.02 55.2986 33.7881 55.8656 33.7881 56.4475C33.7881 57.0275 34.02 57.5965 34.429 58.0067C34.8359 58.4166 35.3981 58.6528 35.9756 58.6528C36.5509 58.6528 37.1131 58.4168 37.5221 58.0067C37.9288 57.5943 38.1631 57.0275 38.1631 56.4475C38.1631 55.8676 37.929 55.2986 37.5221 54.8884Z" fill="#DA567D"/>
<path d="M28.4526 54.9546C28.0459 54.5444 27.4816 54.3107 26.9062 54.3107C26.3309 54.3107 25.7666 54.5444 25.3597 54.9546C24.9528 55.3668 24.7188 55.9357 24.7188 56.5159C24.7188 57.0959 24.9526 57.6648 25.3597 58.0748C25.7666 58.485 26.3309 58.7212 26.9062 58.7212C27.4816 58.7212 28.0459 58.4852 28.4526 58.0748C28.8595 57.6624 29.0938 57.0959 29.0938 56.5159C29.0938 55.9357 28.8597 55.3668 28.4526 54.9546Z" fill="#DA567D"/>
<path d="M46.5891 54.8201C46.1825 54.4099 45.6203 54.1739 45.0428 54.1739C44.4675 54.1739 43.9031 54.4097 43.4962 54.8201C43.0893 55.2305 42.8553 55.7992 42.8553 56.3792C42.8553 56.9592 43.0891 57.5281 43.4962 57.9381C43.9031 58.3483 44.4675 58.5845 45.0428 58.5845C45.6181 58.5845 46.1825 58.3485 46.5891 57.9381C46.996 57.5281 47.2303 56.9592 47.2303 56.3792C47.2303 55.7992 46.9962 55.2302 46.5891 54.8201Z" fill="#DA567D"/>
<path d="M72.5253 45.2074C71.3173 45.2074 70.3378 46.1949 70.3378 47.4127C70.3378 48.6304 71.3173 49.6179 72.5253 49.6179C76.2646 49.6179 79.3065 52.6845 79.3065 56.4542C79.3065 57.6719 80.2861 58.6594 81.494 58.6594C82.702 58.6594 83.6815 57.6719 83.6815 56.4542C83.6815 50.2528 78.6767 45.2074 72.5253 45.2074Z" fill="#DA567D"/>
<path d="M43.8594 75.4192H26.9065C25.6986 75.4192 24.719 76.4067 24.719 77.6245C24.719 78.8422 25.6986 79.8297 26.9065 79.8297H43.8594C45.0673 79.8297 46.0469 78.8422 46.0469 77.6245C46.0469 76.4067 45.0673 75.4192 43.8594 75.4192Z" fill="#DA567D"/>
<path d="M54.602 76.0656C54.1954 75.6554 53.6329 75.4194 53.0557 75.4194C52.4804 75.4194 51.916 75.6552 51.5091 76.0656C51.1022 76.476 50.8682 77.0447 50.8682 77.6247C50.8682 78.2047 51.102 78.7736 51.5091 79.1836C51.9182 79.5937 52.4804 79.8299 53.0557 79.8299C53.631 79.8299 54.1954 79.5937 54.602 79.1836C55.0111 78.7736 55.2432 78.2047 55.2432 77.6247C55.2432 77.0447 55.0111 76.4757 54.602 76.0656Z" fill="#DA567D"/>
</svg>
