<svg width="107" height="95" viewBox="0 0 107 95" fill="none" xmlns="http://www.w3.org/2000/svg">
<path d="M80.25 21.8702H66.666C65.512 21.8702 64.5762 22.6977 64.5762 23.7182C64.5762 24.7387 65.512 25.5663 66.666 25.5663H80.25C81.404 25.5663 82.3398 24.7387 82.3398 23.7182C82.3398 22.6977 81.404 21.8702 80.25 21.8702Z" fill="#DA567D"/>
<path d="M80.25 29.2623H66.666C65.512 29.2623 64.5762 30.0899 64.5762 31.1104C64.5762 32.1309 65.512 32.9585 66.666 32.9585H80.25C81.404 32.9585 82.3398 32.1309 82.3398 31.1104C82.3398 30.0899 81.404 29.2623 80.25 29.2623Z" fill="#DA567D"/>
<path d="M40.0859 54.5176H26.75C25.596 54.5176 24.6602 55.3452 24.6602 56.3657C24.6602 57.3862 25.596 58.2138 26.75 58.2138H40.0859C41.2399 58.2138 42.1758 57.3862 42.1758 56.3657C42.1758 55.3452 41.2399 54.5176 40.0859 54.5176Z" fill="#DA567D"/>
<path d="M50.3797 55.0591C49.9912 54.7152 49.452 54.5176 48.9023 54.5176C48.3527 54.5176 47.8135 54.7152 47.4248 55.0591C47.0361 55.4031 46.8125 55.8797 46.8125 56.3657C46.8125 56.8518 47.0359 57.3286 47.4248 57.6721C47.8135 58.0159 48.3527 58.2138 48.9023 58.2138C49.452 58.2138 49.9912 58.0161 50.3797 57.6721C50.7686 57.3286 50.9922 56.8518 50.9922 56.3657C50.9922 55.8797 50.7686 55.4029 50.3797 55.0591Z" fill="#DA567D"/>
<path d="M48.9023 47.1253H26.75C25.596 47.1253 24.6602 47.9529 24.6602 48.9733C24.6602 49.9938 25.596 50.8214 26.75 50.8214H48.9023C50.0564 50.8214 50.9922 49.9938 50.9922 48.9733C50.9922 47.9529 50.0564 47.1253 48.9023 47.1253Z" fill="#DA567D"/>
<path d="M102.178 35.8408H101.357V17.5562C101.357 16.5357 100.422 15.7081 99.2676 15.7081H91.5352V1.84806C91.5352 0.827559 90.5993 0 89.4453 0H33.1589C32.0049 0 31.0691 0.827559 31.0691 1.84806C31.0691 2.86855 32.0049 3.69611 33.1589 3.69611H87.3555V35.8408H65.8451C63.1864 35.8408 61.0234 37.7537 61.0234 40.1046V62.2545C61.0234 64.6056 63.1866 66.5183 65.8451 66.5183H69.741L74.5926 70.8086C75.0007 71.1693 75.5355 71.3499 76.0703 71.3499C76.6051 71.3499 77.1399 71.1693 77.548 70.8086L82.3996 66.5183H97.1777V73.5526H61.8669H45.1481H9.82227V66.5296H17.5062C17.5225 66.53 17.5384 66.5318 17.5547 66.5318C17.571 66.5318 17.5869 66.53 17.6032 66.5296H55.2415C56.3955 66.5296 57.3313 65.7021 57.3313 64.6816C57.3313 63.6611 56.3955 62.8335 55.2415 62.8335H19.6445V22.9159H23.8242C24.9782 22.9159 25.9141 22.0883 25.9141 21.0678V1.84806C25.9141 0.827559 24.9782 0 23.8242 0H2.08984C0.935832 0 0 0.827559 0 1.84806V21.0678C0 22.0883 0.935832 22.9159 2.08984 22.9159H15.4648V62.8335H9.82227V27.6225C9.82227 26.602 8.88643 25.7745 7.73242 25.7745C6.57841 25.7745 5.64258 26.602 5.64258 27.6225V75.4007C5.64258 76.4211 6.57841 77.2487 7.73242 77.2487H43.0583V83.5313H34.9029C33.7489 83.5313 32.8131 84.3589 32.8131 85.3794V92.7724C32.8131 93.7929 33.7489 94.6204 34.9029 94.6204H72.1124C73.2664 94.6204 74.2022 93.7929 74.2022 92.7724V85.3794C74.2022 84.3589 73.2664 83.5313 72.1124 83.5313H63.9569V77.2487H99.2676C100.422 77.2487 101.357 76.4211 101.357 75.4007V66.5183H102.178C104.837 66.5183 107 64.6054 107 62.2545V40.1046C107 37.7535 104.837 35.8408 102.178 35.8408ZM4.17969 19.2198V3.69611H21.7344V13.6632L18.5551 10.8518C17.7388 10.1303 16.4159 10.1303 15.5994 10.8518L6.13662 19.2198H4.17969ZM12.0477 19.2198L17.0772 14.7722L21.7344 18.8904V19.2198H12.0477ZM47.238 77.2487H59.7771V83.5313H47.238V77.2487ZM70.0223 87.2275V90.9243H36.9927V87.2275H45.1481H61.8669H70.0223ZM91.5352 19.4042H97.1777V35.8406H91.5352V19.4042ZM102.82 62.2545C102.82 62.5676 102.532 62.8222 102.178 62.8222H81.534C80.9798 62.8222 80.4483 63.017 80.0563 63.3635L76.0703 66.8881L72.0846 63.3635C71.6925 63.017 71.1611 62.8222 70.6068 62.8222H65.8453C65.4913 62.8222 65.2033 62.5676 65.2033 62.2545V40.1046C65.2033 39.7916 65.4913 39.5369 65.8453 39.5369H87.3555V40.7178C87.3555 41.7383 88.2913 42.5659 89.4453 42.5659C90.5993 42.5659 91.5352 41.7383 91.5352 40.7178V39.5369H102.178C102.532 39.5369 102.82 39.7916 102.82 40.1046V62.2545Z" fill="#DA567D"/>
<path d="M92.3548 48.7867L84.3661 44.2587C83.0819 43.531 81.4523 43.4803 80.1135 44.1277C78.7747 44.7751 77.943 46.0155 77.943 47.3648V56.4207C77.943 57.7699 78.7745 59.0102 80.1135 59.6576C80.7388 59.9599 81.4274 60.11 82.1147 60.11C82.8991 60.11 83.6815 59.9144 84.3659 59.5265L92.3546 54.9986H92.3548C93.5571 54.3168 94.2749 53.1557 94.2749 51.8927C94.2751 50.6296 93.5573 49.4686 92.3548 48.7867ZM82.1229 56.4072L82.1235 47.3779L90.0885 51.8931L82.1229 56.4072Z" fill="#DA567D"/>
<path d="M54.6549 31.8063L52.7688 30.2998C52.7863 30.0581 52.7951 29.816 52.7951 29.5745C52.7951 29.3329 52.7863 29.0908 52.7688 28.8491L54.6549 27.3426C55.3867 26.758 55.5566 25.8007 55.063 25.0458L52.0033 20.3679C51.5105 19.614 50.4894 19.2668 49.5517 19.5346L47.1381 20.2243C46.6819 19.9548 46.2077 19.7122 45.7166 19.4974L45.1849 17.3023C44.9785 16.4502 44.1269 15.8414 43.1415 15.8414H37.0308C36.0452 15.8414 35.1938 16.4502 34.9873 17.3023L34.4557 19.4974C33.9646 19.7122 33.4904 19.9548 33.0342 20.2243L30.6206 19.5346C29.6839 19.2672 28.6622 19.6138 28.169 20.3679L25.1093 25.0458C24.6155 25.8007 24.7856 26.758 25.5174 27.3426L27.4035 28.8491C27.386 29.0908 27.3772 29.3329 27.3772 29.5745C27.3772 29.816 27.386 30.0581 27.4035 30.2998L25.5174 31.8063C24.7856 32.3909 24.6157 33.3482 25.1093 34.1031L28.169 38.7811C28.662 39.5351 29.6831 39.8821 30.6206 39.6143L33.0342 38.9247C33.4902 39.1943 33.9646 39.4367 34.4557 39.6517L34.9873 41.8468C35.1938 42.6989 36.0454 43.3077 37.0308 43.3077H43.1415C44.1271 43.3077 44.9785 42.6989 45.1849 41.8468L45.7166 39.6517C46.2077 39.4369 46.6821 39.1943 47.1381 38.9247L49.5517 39.6143C50.4894 39.8821 51.5105 39.5347 52.0033 38.7811L55.063 34.1031C55.5566 33.3482 55.3867 32.3909 54.6549 31.8063ZM48.5109 28.3967C48.5797 28.7844 48.6146 29.1806 48.6146 29.5745C48.6146 29.9683 48.5797 30.3645 48.5109 30.7522C48.4016 31.3685 48.6512 31.9921 49.1747 32.4103L50.5978 33.5468L49.2298 35.6381L47.4056 35.1168C46.7331 34.9247 45.9966 35.046 45.4476 35.4392C44.7519 35.9375 43.9774 36.3337 43.1459 36.6164C42.487 36.8404 42.0006 37.3437 41.8527 37.9541L41.4512 39.6112H38.7198L38.3183 37.9541C38.1704 37.3435 37.6841 36.8404 37.0252 36.6164C36.1936 36.3337 35.4191 35.9375 34.7234 35.4392C34.1744 35.0458 33.4375 34.9247 32.7654 35.1168L30.9412 35.6381L29.5732 33.5468L30.9964 32.4103C31.5203 31.9921 31.77 31.3685 31.6605 30.7522C31.5918 30.3645 31.5569 29.9683 31.5569 29.5745C31.5569 29.1806 31.5918 28.7844 31.6605 28.3967C31.7698 27.7804 31.5203 27.1568 30.9968 26.7386L29.5736 25.6021L30.9414 23.5108L32.7656 24.0322C33.4377 24.224 34.1746 24.1029 34.7236 23.7097C35.4193 23.2114 36.1938 22.8152 37.0254 22.5325C37.6843 22.3085 38.1706 21.8053 38.3186 21.1949L38.72 19.5377H41.4514L41.8529 21.1949C42.0009 21.8054 42.4872 22.3085 43.1461 22.5325C43.9776 22.8152 44.7521 23.2114 45.4478 23.7097C45.9968 24.1029 46.7333 24.224 47.4058 24.0322L49.23 23.5108L50.5978 25.6021L49.1747 26.7386C48.6512 27.1568 48.4016 27.7804 48.5109 28.3967Z" fill="#DA567D"/>
<path d="M42.3172 8.67294C41.9264 8.32921 41.3894 8.13147 40.8397 8.13147C40.2878 8.13147 39.7509 8.32902 39.3601 8.67294C38.9714 9.01668 38.7499 9.49347 38.7499 9.9795C38.7499 10.4655 38.9714 10.9423 39.3601 11.2859C39.7509 11.6296 40.2878 11.8275 40.8397 11.8275C41.3894 11.8275 41.9264 11.6298 42.3172 11.2859C42.7057 10.9423 42.9296 10.4655 42.9296 9.9795C42.9296 9.49347 42.706 9.01668 42.3172 8.67294Z" fill="#DA567D"/>
<path d="M34.6371 8.67294C34.2463 8.32921 33.7092 8.13147 33.1595 8.13147C32.6076 8.13147 32.0707 8.32902 31.682 8.67294C31.2912 9.01668 31.0697 9.49162 31.0697 9.9795C31.0697 10.4655 31.2912 10.9423 31.682 11.2859C32.0707 11.6296 32.6078 11.8275 33.1595 11.8275C33.7092 11.8275 34.2463 11.6298 34.6371 11.2859C35.0256 10.9423 35.2494 10.4655 35.2494 9.9795C35.2494 9.49143 35.0258 9.01668 34.6371 8.67294Z" fill="#DA567D"/>
<path d="M80.25 8.13147H48.5184C47.3644 8.13147 46.4286 8.95902 46.4286 9.9795C46.4286 11 47.3644 11.8275 48.5184 11.8275H80.25C81.404 11.8275 82.3398 11 82.3398 9.9795C82.3398 8.95902 81.404 8.13147 80.25 8.13147Z" fill="#DA567D"/>
<path d="M9.39155 6.27048C9.00305 5.92656 8.46596 5.729 7.91424 5.729C7.36461 5.729 6.82753 5.92656 6.43673 6.27048C6.04801 6.61421 5.8244 7.091 5.8244 7.57703C5.8244 8.06306 6.04781 8.53986 6.43673 8.8834C6.82753 9.22732 7.36461 9.42506 7.91424 9.42506C8.46596 9.42506 9.00514 9.22732 9.39155 8.8834C9.78235 8.53986 10.006 8.06306 10.006 7.57703C10.006 7.091 9.78235 6.61421 9.39155 6.27048Z" fill="#DA567D"/>
</svg>
